<svg width="256" height="256" viewBox="0 0 256 256" fill="none" xmlns="http://www.w3.org/2000/svg">
<g clip-path="url(#clip0_75_3)">
<path fill-rule="evenodd" clip-rule="evenodd" d="M0 0V256H256V0H0ZM224 224V32H32V224H224Z" fill="black"/>
<path d="M56.63 157.18L56.5 157.31C55.8933 157.31 55.33 157.223 54.81 157.05C54.3767 156.877 53.9433 156.66 53.51 156.4C53.1633 156.053 52.86 155.707 52.6 155.36C52.34 155.013 52.1233 154.623 51.95 154.19C51.7767 153.67 51.69 153.107 51.69 152.5V152.37H51.82H56.63V157.18ZM56.24 157.18L56.37 152.37H61.18H61.31V152.5C61.31 153.107 61.2233 153.67 61.05 154.19C60.8767 154.623 60.6167 155.013 60.27 155.36C60.01 155.707 59.6633 156.053 59.23 156.4C58.8833 156.66 58.45 156.877 57.93 157.05C57.4967 157.223 57.02 157.31 56.5 157.31H56.37L56.24 157.18ZM56.37 147.82L56.5 147.69C57.1067 147.69 57.6267 147.777 58.06 147.95C58.58 148.123 59.0133 148.383 59.36 148.73C59.7933 148.99 60.14 149.293 60.4 149.64C60.66 149.987 60.8767 150.42 61.05 150.94C61.2233 151.373 61.31 151.893 61.31 152.5V152.63H61.18H56.37V147.82ZM56.76 147.82L56.63 152.63H51.82H51.69V152.5C51.69 151.893 51.7767 151.373 51.95 150.94C52.1233 150.42 52.34 149.987 52.6 149.64C52.9467 149.293 53.2933 148.99 53.64 148.73C54.0733 148.383 54.5067 148.123 54.94 147.95C55.46 147.777 55.98 147.69 56.5 147.69H56.63L56.76 147.82ZM58.45 144.18L58.32 144.31C57.7133 144.31 57.15 144.223 56.63 144.05C56.1967 143.877 55.7633 143.66 55.33 143.4C54.9833 143.053 54.68 142.707 54.42 142.36C54.16 142.013 53.9433 141.623 53.77 141.19C53.5967 140.67 53.51 140.107 53.51 139.5V139.37H53.64H58.45V144.18ZM58.06 144.18L58.19 139.37H63H63.13V139.5C63.13 140.107 63.0433 140.67 62.87 141.19C62.6967 141.623 62.4367 142.013 62.09 142.36C61.83 142.707 61.4833 143.053 61.05 143.4C60.7033 143.66 60.27 143.877 59.75 144.05C59.3167 144.223 58.84 144.31 58.32 144.31H58.19L58.06 144.18ZM58.19 134.82L58.32 134.69C58.9267 134.69 59.4467 134.777 59.88 134.95C60.4 135.123 60.8333 135.383 61.18 135.73C61.6133 135.99 61.96 136.293 62.22 136.64C62.48 136.987 62.6967 137.42 62.87 137.94C63.0433 138.373 63.13 138.893 63.13 139.5V139.63H63H58.19V134.82ZM58.58 134.82L58.45 139.63H53.64H53.51V139.5C53.51 138.893 53.5967 138.373 53.77 137.94C53.9433 137.42 54.16 136.987 54.42 136.64C54.7667 136.293 55.1133 135.99 55.46 135.73C55.8933 135.383 56.3267 135.123 56.76 134.95C57.28 134.777 57.8 134.69 58.32 134.69H58.45L58.58 134.82ZM60.27 131.18L60.14 131.31C59.5333 131.31 58.97 131.223 58.45 131.05C58.0167 130.877 57.5833 130.66 57.15 130.4C56.8033 130.053 56.5 129.707 56.24 129.36C55.98 129.013 55.7633 128.623 55.59 128.19C55.4167 127.67 55.33 127.107 55.33 126.5V126.37H55.46H60.27V131.18ZM59.88 131.18L60.01 126.37H64.82H64.95V126.5C64.95 127.107 64.8633 127.67 64.69 128.19C64.5167 128.623 64.2567 129.013 63.91 129.36C63.65 129.707 63.3033 130.053 62.87 130.4C62.5233 130.66 62.09 130.877 61.57 131.05C61.1367 131.223 60.66 131.31 60.14 131.31H60.01L59.88 131.18ZM60.01 121.82L60.14 121.69C60.7467 121.69 61.2667 121.777 61.7 121.95C62.22 122.123 62.6533 122.383 63 122.73C63.4333 122.99 63.78 123.293 64.04 123.64C64.3 123.987 64.5167 124.42 64.69 124.94C64.8633 125.373 64.95 125.893 64.95 126.5V126.63H64.82H60.01V121.82ZM60.4 121.82L60.27 126.63H55.46H55.33V126.5C55.33 125.893 55.4167 125.373 55.59 124.94C55.7633 124.42 55.98 123.987 56.24 123.64C56.5867 123.293 56.9333 122.99 57.28 122.73C57.7133 122.383 58.1467 122.123 58.58 121.95C59.1 121.777 59.62 121.69 60.14 121.69H60.27L60.4 121.82ZM62.09 118.18L61.96 118.31C61.3533 118.31 60.79 118.223 60.27 118.05C59.8367 117.877 59.4033 117.66 58.97 117.4C58.6233 117.053 58.32 116.707 58.06 116.36C57.8 116.013 57.5833 115.623 57.41 115.19C57.2367 114.67 57.15 114.107 57.15 113.5V113.37H57.28H62.09V118.18ZM61.7 118.18L61.83 113.37H66.64H66.77V113.5C66.77 114.107 66.6833 114.67 66.51 115.19C66.3367 115.623 66.0767 116.013 65.73 116.36C65.47 116.707 65.1233 117.053 64.69 117.4C64.3433 117.66 63.91 117.877 63.39 118.05C62.9567 118.223 62.48 118.31 61.96 118.31H61.83L61.7 118.18ZM61.83 108.82L61.96 108.69C62.5667 108.69 63.0867 108.777 63.52 108.95C64.04 109.123 64.4733 109.383 64.82 109.73C65.2533 109.99 65.6 110.293 65.86 110.64C66.12 110.987 66.3367 111.42 66.51 111.94C66.6833 112.373 66.77 112.893 66.77 113.5V113.63H66.64H61.83V108.82ZM62.22 108.82L62.09 113.63H57.28H57.15V113.5C57.15 112.893 57.2367 112.373 57.41 111.94C57.5833 111.42 57.8 110.987 58.06 110.64C58.4067 110.293 58.7533 109.99 59.1 109.73C59.5333 109.383 59.9667 109.123 60.4 108.95C60.92 108.777 61.44 108.69 61.96 108.69H62.09L62.22 108.82ZM63.91 105.18L63.78 105.31C63.1733 105.31 62.61 105.223 62.09 105.05C61.6567 104.877 61.2233 104.66 60.79 104.4C60.4433 104.053 60.14 103.707 59.88 103.36C59.62 103.013 59.4033 102.623 59.23 102.19C59.0567 101.67 58.97 101.107 58.97 100.5V100.37H59.1H63.91V105.18ZM63.52 105.18L63.65 100.37H68.46H68.59V100.5C68.59 101.107 68.5033 101.67 68.33 102.19C68.1567 102.623 67.8967 103.013 67.55 103.36C67.29 103.707 66.9433 104.053 66.51 104.4C66.1633 104.66 65.73 104.877 65.21 105.05C64.7767 105.223 64.3 105.31 63.78 105.31H63.65L63.52 105.18ZM63.65 95.82L63.78 95.69C64.3867 95.69 64.9067 95.7767 65.34 95.95C65.86 96.1233 66.2933 96.3833 66.64 96.73C67.0733 96.99 67.42 97.2933 67.68 97.64C67.94 97.9867 68.1567 98.42 68.33 98.94C68.5033 99.3733 68.59 99.8933 68.59 100.5V100.63H68.46H63.65V95.82ZM64.04 95.82L63.91 100.63H59.1H58.97V100.5C58.97 99.8933 59.0567 99.3733 59.23 98.94C59.4033 98.42 59.62 97.9867 59.88 97.64C60.2267 97.2933 60.5733 96.99 60.92 96.73C61.3533 96.3833 61.7867 96.1233 62.22 95.95C62.74 95.7767 63.26 95.69 63.78 95.69H63.91L64.04 95.82ZM65.73 92.18L65.6 92.31C64.9933 92.31 64.43 92.2233 63.91 92.05C63.4767 91.8767 63.0433 91.66 62.61 91.4C62.2633 91.0533 61.96 90.7067 61.7 90.36C61.44 90.0133 61.2233 89.6233 61.05 89.19C60.8767 88.67 60.79 88.1067 60.79 87.5V87.37H60.92H65.73V92.18ZM65.34 92.18L65.47 87.37H70.28H70.41V87.5C70.41 88.1067 70.3233 88.67 70.15 89.19C69.9767 89.6233 69.7167 90.0133 69.37 90.36C69.11 90.7067 68.7633 91.0533 68.33 91.4C67.9833 91.66 67.55 91.8767 67.03 92.05C66.5967 92.2233 66.12 92.31 65.6 92.31H65.47L65.34 92.18ZM65.47 82.82L65.6 82.69C66.2067 82.69 66.7267 82.7767 67.16 82.95C67.68 83.1233 68.1133 83.3833 68.46 83.73C68.8933 83.99 69.24 84.2933 69.5 84.64C69.76 84.9867 69.9767 85.42 70.15 85.94C70.3233 86.3733 70.41 86.8933 70.41 87.5V87.63H70.28H65.47V82.82ZM65.86 82.82L65.73 87.63H60.92H60.79V87.5C60.79 86.8933 60.8767 86.3733 61.05 85.94C61.2233 85.42 61.44 84.9867 61.7 84.64C62.0467 84.2933 62.3933 83.99 62.74 83.73C63.1733 83.3833 63.6067 83.1233 64.04 82.95C64.56 82.7767 65.08 82.69 65.6 82.69H65.73L65.86 82.82ZM73.27 131.18L73.14 131.31C72.5333 131.31 71.97 131.223 71.45 131.05C71.0167 130.877 70.5833 130.66 70.15 130.4C69.8033 130.053 69.5 129.707 69.24 129.36C68.98 129.013 68.7633 128.623 68.59 128.19C68.4167 127.67 68.33 127.107 68.33 126.5V126.37H68.46H73.27V131.18ZM72.88 131.18L73.01 126.37H77.82H77.95V126.5C77.95 127.107 77.8633 127.67 77.69 128.19C77.5167 128.623 77.2567 129.013 76.91 129.36C76.65 129.707 76.3033 130.053 75.87 130.4C75.5233 130.66 75.09 130.877 74.57 131.05C74.1367 131.223 73.66 131.31 73.14 131.31H73.01L72.88 131.18ZM73.01 121.82L73.14 121.69C73.7467 121.69 74.2667 121.777 74.7 121.95C75.22 122.123 75.6533 122.383 76 122.73C76.4333 122.99 76.78 123.293 77.04 123.64C77.3 123.987 77.5167 124.42 77.69 124.94C77.8633 125.373 77.95 125.893 77.95 126.5V126.63H77.82H73.01V121.82ZM73.4 121.82L73.27 126.63H68.46H68.33V126.5C68.33 125.893 68.4167 125.373 68.59 124.94C68.7633 124.42 68.98 123.987 69.24 123.64C69.5867 123.293 69.9333 122.99 70.28 122.73C70.7133 122.383 71.1467 122.123 71.58 121.95C72.1 121.777 72.62 121.69 73.14 121.69H73.27L73.4 121.82ZM78.73 92.18L78.6 92.31C77.9933 92.31 77.43 92.2233 76.91 92.05C76.4767 91.8767 76.0433 91.66 75.61 91.4C75.2633 91.0533 74.96 90.7067 74.7 90.36C74.44 90.0133 74.2233 89.6233 74.05 89.19C73.8767 88.67 73.79 88.1067 73.79 87.5V87.37H73.92H78.73V92.18ZM78.34 92.18L78.47 87.37H83.28H83.41V87.5C83.41 88.1067 83.3233 88.67 83.15 89.19C82.9767 89.6233 82.7167 90.0133 82.37 90.36C82.11 90.7067 81.7633 91.0533 81.33 91.4C80.9833 91.66 80.55 91.8767 80.03 92.05C79.5967 92.2233 79.12 92.31 78.6 92.31H78.47L78.34 92.18ZM78.47 82.82L78.6 82.69C79.2067 82.69 79.7267 82.7767 80.16 82.95C80.68 83.1233 81.1133 83.3833 81.46 83.73C81.8933 83.99 82.24 84.2933 82.5 84.64C82.76 84.9867 82.9767 85.42 83.15 85.94C83.3233 86.3733 83.41 86.8933 83.41 87.5V87.63H83.28H78.47V82.82ZM78.86 82.82L78.73 87.63H73.92H73.79V87.5C73.79 86.8933 73.8767 86.3733 74.05 85.94C74.2233 85.42 74.44 84.9867 74.7 84.64C75.0467 84.2933 75.3933 83.99 75.74 83.73C76.1733 83.3833 76.6067 83.1233 77.04 82.95C77.56 82.7767 78.08 82.69 78.6 82.69H78.73L78.86 82.82ZM86.27 131.18L86.14 131.31C85.5333 131.31 84.97 131.223 84.45 131.05C84.0167 130.877 83.5833 130.66 83.15 130.4C82.8033 130.053 82.5 129.707 82.24 129.36C81.98 129.013 81.7633 128.623 81.59 128.19C81.4167 127.67 81.33 127.107 81.33 126.5V126.37H81.46H86.27V131.18ZM85.88 131.18L86.01 126.37H90.82H90.95V126.5C90.95 127.107 90.8633 127.67 90.69 128.19C90.5167 128.623 90.2567 129.013 89.91 129.36C89.65 129.707 89.3033 130.053 88.87 130.4C88.5233 130.66 88.09 130.877 87.57 131.05C87.1367 131.223 86.66 131.31 86.14 131.31H86.01L85.88 131.18ZM86.01 121.82L86.14 121.69C86.7467 121.69 87.2667 121.777 87.7 121.95C88.22 122.123 88.6533 122.383 89 122.73C89.4333 122.99 89.78 123.293 90.04 123.64C90.3 123.987 90.5167 124.42 90.69 124.94C90.8633 125.373 90.95 125.893 90.95 126.5V126.63H90.82H86.01V121.82ZM86.4 121.82L86.27 126.63H81.46H81.33V126.5C81.33 125.893 81.4167 125.373 81.59 124.94C81.7633 124.42 81.98 123.987 82.24 123.64C82.5867 123.293 82.9333 122.99 83.28 122.73C83.7133 122.383 84.1467 122.123 84.58 121.95C85.1 121.777 85.62 121.69 86.14 121.69H86.27L86.4 121.82ZM91.73 92.18L91.6 92.31C90.9933 92.31 90.43 92.2233 89.91 92.05C89.4767 91.8767 89.0433 91.66 88.61 91.4C88.2633 91.0533 87.96 90.7067 87.7 90.36C87.44 90.0133 87.2233 89.6233 87.05 89.19C86.8767 88.67 86.79 88.1067 86.79 87.5V87.37H86.92H91.73V92.18ZM91.34 92.18L91.47 87.37H96.28H96.41V87.5C96.41 88.1067 96.3233 88.67 96.15 89.19C95.9767 89.6233 95.7167 90.0133 95.37 90.36C95.11 90.7067 94.7633 91.0533 94.33 91.4C93.9833 91.66 93.55 91.8767 93.03 92.05C92.5967 92.2233 92.12 92.31 91.6 92.31H91.47L91.34 92.18ZM91.47 82.82L91.6 82.69C92.2067 82.69 92.7267 82.7767 93.16 82.95C93.68 83.1233 94.1133 83.3833 94.46 83.73C94.8933 83.99 95.24 84.2933 95.5 84.64C95.76 84.9867 95.9767 85.42 96.15 85.94C96.3233 86.3733 96.41 86.8933 96.41 87.5V87.63H96.28H91.47V82.82ZM91.86 82.82L91.73 87.63H86.92H86.79V87.5C86.79 86.8933 86.8767 86.3733 87.05 85.94C87.2233 85.42 87.44 84.9867 87.7 84.64C88.0467 84.2933 88.3933 83.99 88.74 83.73C89.1733 83.3833 89.6067 83.1233 90.04 82.95C90.56 82.7767 91.08 82.69 91.6 82.69H91.73L91.86 82.82ZM99.27 131.18L99.14 131.31C98.5333 131.31 97.97 131.223 97.45 131.05C97.0167 130.877 96.5833 130.66 96.15 130.4C95.8033 130.053 95.5 129.707 95.24 129.36C94.98 129.013 94.7633 128.623 94.59 128.19C94.4167 127.67 94.33 127.107 94.33 126.5V126.37H94.46H99.27V131.18ZM98.88 131.18L99.01 126.37H103.82H103.95V126.5C103.95 127.107 103.863 127.67 103.69 128.19C103.517 128.623 103.257 129.013 102.91 129.36C102.65 129.707 102.303 130.053 101.87 130.4C101.523 130.66 101.09 130.877 100.57 131.05C100.137 131.223 99.66 131.31 99.14 131.31H99.01L98.88 131.18ZM99.01 121.82L99.14 121.69C99.7467 121.69 100.267 121.777 100.7 121.95C101.22 122.123 101.653 122.383 102 122.73C102.433 122.99 102.78 123.293 103.04 123.64C103.3 123.987 103.517 124.42 103.69 124.94C103.863 125.373 103.95 125.893 103.95 126.5V126.63H103.82H99.01V121.82ZM99.4 121.82L99.27 126.63H94.46H94.33V126.5C94.33 125.893 94.4167 125.373 94.59 124.94C94.7633 124.42 94.98 123.987 95.24 123.64C95.5867 123.293 95.9333 122.99 96.28 122.73C96.7133 122.383 97.1467 122.123 97.58 121.95C98.1 121.777 98.62 121.69 99.14 121.69H99.27L99.4 121.82ZM104.73 92.18L104.6 92.31C103.993 92.31 103.43 92.2233 102.91 92.05C102.477 91.8767 102.043 91.66 101.61 91.4C101.263 91.0533 100.96 90.7067 100.7 90.36C100.44 90.0133 100.223 89.6233 100.05 89.19C99.8767 88.67 99.79 88.1067 99.79 87.5V87.37H99.92H104.73V92.18ZM104.34 92.18L104.47 87.37H109.28H109.41V87.5C109.41 88.1067 109.323 88.67 109.15 89.19C108.977 89.6233 108.717 90.0133 108.37 90.36C108.11 90.7067 107.763 91.0533 107.33 91.4C106.983 91.66 106.55 91.8767 106.03 92.05C105.597 92.2233 105.12 92.31 104.6 92.31H104.47L104.34 92.18ZM104.47 82.82L104.6 82.69C105.207 82.69 105.727 82.7767 106.16 82.95C106.68 83.1233 107.113 83.3833 107.46 83.73C107.893 83.99 108.24 84.2933 108.5 84.64C108.76 84.9867 108.977 85.42 109.15 85.94C109.323 86.3733 109.41 86.8933 109.41 87.5V87.63H109.28H104.47V82.82ZM104.86 82.82L104.73 87.63H99.92H99.79V87.5C99.79 86.8933 99.8767 86.3733 100.05 85.94C100.223 85.42 100.44 84.9867 100.7 84.64C101.047 84.2933 101.393 83.99 101.74 83.73C102.173 83.3833 102.607 83.1233 103.04 82.95C103.56 82.7767 104.08 82.69 104.6 82.69H104.73L104.86 82.82ZM114.09 118.18L113.96 118.31C113.353 118.31 112.79 118.223 112.27 118.05C111.837 117.877 111.403 117.66 110.97 117.4C110.623 117.053 110.32 116.707 110.06 116.36C109.8 116.013 109.583 115.623 109.41 115.19C109.237 114.67 109.15 114.107 109.15 113.5V113.37H109.28H114.09V118.18ZM113.7 118.18L113.83 113.37H118.64H118.77V113.5C118.77 114.107 118.683 114.67 118.51 115.19C118.337 115.623 118.077 116.013 117.73 116.36C117.47 116.707 117.123 117.053 116.69 117.4C116.343 117.66 115.91 117.877 115.39 118.05C114.957 118.223 114.48 118.31 113.96 118.31H113.83L113.7 118.18ZM113.83 108.82L113.96 108.69C114.567 108.69 115.087 108.777 115.52 108.95C116.04 109.123 116.473 109.383 116.82 109.73C117.253 109.99 117.6 110.293 117.86 110.64C118.12 110.987 118.337 111.42 118.51 111.94C118.683 112.373 118.77 112.893 118.77 113.5V113.63H118.64H113.83V108.82ZM114.22 108.82L114.09 113.63H109.28H109.15V113.5C109.15 112.893 109.237 112.373 109.41 111.94C109.583 111.42 109.8 110.987 110.06 110.64C110.407 110.293 110.753 109.99 111.1 109.73C111.533 109.383 111.967 109.123 112.4 108.95C112.92 108.777 113.44 108.69 113.96 108.69H114.09L114.22 108.82ZM115.91 105.18L115.78 105.31C115.173 105.31 114.61 105.223 114.09 105.05C113.657 104.877 113.223 104.66 112.79 104.4C112.443 104.053 112.14 103.707 111.88 103.36C111.62 103.013 111.403 102.623 111.23 102.19C111.057 101.67 110.97 101.107 110.97 100.5V100.37H111.1H115.91V105.18ZM115.52 105.18L115.65 100.37H120.46H120.59V100.5C120.59 101.107 120.503 101.67 120.33 102.19C120.157 102.623 119.897 103.013 119.55 103.36C119.29 103.707 118.943 104.053 118.51 104.4C118.163 104.66 117.73 104.877 117.21 105.05C116.777 105.223 116.3 105.31 115.78 105.31H115.65L115.52 105.18ZM115.65 95.82L115.78 95.69C116.387 95.69 116.907 95.7767 117.34 95.95C117.86 96.1233 118.293 96.3833 118.64 96.73C119.073 96.99 119.42 97.2933 119.68 97.64C119.94 97.9867 120.157 98.42 120.33 98.94C120.503 99.3733 120.59 99.8933 120.59 100.5V100.63H120.46H115.65V95.82ZM116.04 95.82L115.91 100.63H111.1H110.97V100.5C110.97 99.8933 111.057 99.3733 111.23 98.94C111.403 98.42 111.62 97.9867 111.88 97.64C112.227 97.2933 112.573 96.99 112.92 96.73C113.353 96.3833 113.787 96.1233 114.22 95.95C114.74 95.7767 115.26 95.69 115.78 95.69H115.91L116.04 95.82ZM134.579 157.18L134.449 157.31C133.843 157.31 133.279 157.223 132.759 157.05C132.326 156.877 131.893 156.66 131.459 156.4C131.113 156.053 130.809 155.707 130.549 155.36C130.289 155.013 130.073 154.623 129.899 154.19C129.726 153.67 129.639 153.107 129.639 152.5V152.37H129.769H134.579V157.18ZM134.189 157.18L134.319 152.37H139.129H139.259V152.5C139.259 153.107 139.173 153.67 138.999 154.19C138.826 154.623 138.566 155.013 138.219 155.36C137.959 155.707 137.613 156.053 137.179 156.4C136.833 156.66 136.399 156.877 135.879 157.05C135.446 157.223 134.969 157.31 134.449 157.31H134.319L134.189 157.18ZM134.319 147.82L134.449 147.69C135.056 147.69 135.576 147.777 136.009 147.95C136.529 148.123 136.963 148.383 137.309 148.73C137.743 148.99 138.089 149.293 138.349 149.64C138.609 149.987 138.826 150.42 138.999 150.94C139.173 151.373 139.259 151.893 139.259 152.5V152.63H139.129H134.319V147.82ZM134.709 147.82L134.579 152.63H129.769H129.639V152.5C129.639 151.893 129.726 151.373 129.899 150.94C130.073 150.42 130.289 149.987 130.549 149.64C130.896 149.293 131.243 148.99 131.589 148.73C132.023 148.383 132.456 148.123 132.889 147.95C133.409 147.777 133.929 147.69 134.449 147.69H134.579L134.709 147.82ZM140.039 118.18L139.909 118.31C139.303 118.31 138.739 118.223 138.219 118.05C137.786 117.877 137.353 117.66 136.919 117.4C136.573 117.053 136.269 116.707 136.009 116.36C135.749 116.013 135.533 115.623 135.359 115.19C135.186 114.67 135.099 114.107 135.099 113.5V113.37H135.229H140.039V118.18ZM139.649 118.18L139.779 113.37H144.589H144.719V113.5C144.719 114.107 144.633 114.67 144.459 115.19C144.286 115.623 144.026 116.013 143.679 116.36C143.419 116.707 143.073 117.053 142.639 117.4C142.293 117.66 141.859 117.877 141.339 118.05C140.906 118.223 140.429 118.31 139.909 118.31H139.779L139.649 118.18ZM139.779 108.82L139.909 108.69C140.516 108.69 141.036 108.777 141.469 108.95C141.989 109.123 142.423 109.383 142.769 109.73C143.203 109.99 143.549 110.293 143.809 110.64C144.069 110.987 144.286 111.42 144.459 111.94C144.633 112.373 144.719 112.893 144.719 113.5V113.63H144.589H139.779V108.82ZM140.169 108.82L140.039 113.63H135.229H135.099V113.5C135.099 112.893 135.186 112.373 135.359 111.94C135.533 111.42 135.749 110.987 136.009 110.64C136.356 110.293 136.703 109.99 137.049 109.73C137.483 109.383 137.916 109.123 138.349 108.95C138.869 108.777 139.389 108.69 139.909 108.69H140.039L140.169 108.82ZM147.579 157.18L147.449 157.31C146.843 157.31 146.279 157.223 145.759 157.05C145.326 156.877 144.893 156.66 144.459 156.4C144.113 156.053 143.809 155.707 143.549 155.36C143.289 155.013 143.073 154.623 142.899 154.19C142.726 153.67 142.639 153.107 142.639 152.5V152.37H142.769H147.579V157.18ZM147.189 157.18L147.319 152.37H152.129H152.259V152.5C152.259 153.107 152.173 153.67 151.999 154.19C151.826 154.623 151.566 155.013 151.219 155.36C150.959 155.707 150.613 156.053 150.179 156.4C149.833 156.66 149.399 156.877 148.879 157.05C148.446 157.223 147.969 157.31 147.449 157.31H147.319L147.189 157.18ZM147.319 147.82L147.449 147.69C148.056 147.69 148.576 147.777 149.009 147.95C149.529 148.123 149.963 148.383 150.309 148.73C150.743 148.99 151.089 149.293 151.349 149.64C151.609 149.987 151.826 150.42 151.999 150.94C152.173 151.373 152.259 151.893 152.259 152.5V152.63H152.129H147.319V147.82ZM147.709 147.82L147.579 152.63H142.769H142.639V152.5C142.639 151.893 142.726 151.373 142.899 150.94C143.073 150.42 143.289 149.987 143.549 149.64C143.896 149.293 144.243 148.99 144.589 148.73C145.023 148.383 145.456 148.123 145.889 147.95C146.409 147.777 146.929 147.69 147.449 147.69H147.579L147.709 147.82ZM154.859 105.18L154.729 105.31C154.123 105.31 153.559 105.223 153.039 105.05C152.606 104.877 152.173 104.66 151.739 104.4C151.393 104.053 151.089 103.707 150.829 103.36C150.569 103.013 150.353 102.623 150.179 102.19C150.006 101.67 149.919 101.107 149.919 100.5V100.37H150.049H154.859V105.18ZM154.469 105.18L154.599 100.37H159.409H159.539V100.5C159.539 101.107 159.453 101.67 159.279 102.19C159.106 102.623 158.846 103.013 158.499 103.36C158.239 103.707 157.893 104.053 157.459 104.4C157.113 104.66 156.679 104.877 156.159 105.05C155.726 105.223 155.249 105.31 154.729 105.31H154.599L154.469 105.18ZM154.599 95.82L154.729 95.69C155.336 95.69 155.856 95.7767 156.289 95.95C156.809 96.1233 157.243 96.3833 157.589 96.73C158.023 96.99 158.369 97.2933 158.629 97.64C158.889 97.9867 159.106 98.42 159.279 98.94C159.453 99.3733 159.539 99.8933 159.539 100.5V100.63H159.409H154.599V95.82ZM154.989 95.82L154.859 100.63H150.049H149.919V100.5C149.919 99.8933 150.006 99.3733 150.179 98.94C150.353 98.42 150.569 97.9867 150.829 97.64C151.176 97.2933 151.523 96.99 151.869 96.73C152.303 96.3833 152.736 96.1233 153.169 95.95C153.689 95.7767 154.209 95.69 154.729 95.69H154.859L154.989 95.82ZM160.579 157.18L160.449 157.31C159.843 157.31 159.279 157.223 158.759 157.05C158.326 156.877 157.893 156.66 157.459 156.4C157.113 156.053 156.809 155.707 156.549 155.36C156.289 155.013 156.073 154.623 155.899 154.19C155.726 153.67 155.639 153.107 155.639 152.5V152.37H155.769H160.579V157.18ZM160.189 157.18L160.319 152.37H165.129H165.259V152.5C165.259 153.107 165.173 153.67 164.999 154.19C164.826 154.623 164.566 155.013 164.219 155.36C163.959 155.707 163.613 156.053 163.179 156.4C162.833 156.66 162.399 156.877 161.879 157.05C161.446 157.223 160.969 157.31 160.449 157.31H160.319L160.189 157.18ZM160.319 147.82L160.449 147.69C161.056 147.69 161.576 147.777 162.009 147.95C162.529 148.123 162.963 148.383 163.309 148.73C163.743 148.99 164.089 149.293 164.349 149.64C164.609 149.987 164.826 150.42 164.999 150.94C165.173 151.373 165.259 151.893 165.259 152.5V152.63H165.129H160.319V147.82ZM160.709 147.82L160.579 152.63H155.769H155.639V152.5C155.639 151.893 155.726 151.373 155.899 150.94C156.073 150.42 156.289 149.987 156.549 149.64C156.896 149.293 157.243 148.99 157.589 148.73C158.023 148.383 158.456 148.123 158.889 147.95C159.409 147.777 159.929 147.69 160.449 147.69H160.579L160.709 147.82ZM162.399 144.18L162.269 144.31C161.663 144.31 161.099 144.223 160.579 144.05C160.146 143.877 159.713 143.66 159.279 143.4C158.933 143.053 158.629 142.707 158.369 142.36C158.109 142.013 157.893 141.623 157.719 141.19C157.546 140.67 157.459 140.107 157.459 139.5V139.37H157.589H162.399V144.18ZM162.009 144.18L162.139 139.37H166.949H167.079V139.5C167.079 140.107 166.993 140.67 166.819 141.19C166.646 141.623 166.386 142.013 166.039 142.36C165.779 142.707 165.433 143.053 164.999 143.4C164.653 143.66 164.219 143.877 163.699 144.05C163.266 144.223 162.789 144.31 162.269 144.31H162.139L162.009 144.18ZM162.139 134.82L162.269 134.69C162.876 134.69 163.396 134.777 163.829 134.95C164.349 135.123 164.783 135.383 165.129 135.73C165.563 135.99 165.909 136.293 166.169 136.64C166.429 136.987 166.646 137.42 166.819 137.94C166.993 138.373 167.079 138.893 167.079 139.5V139.63H166.949H162.139V134.82ZM162.529 134.82L162.399 139.63H157.589H157.459V139.5C157.459 138.893 157.546 138.373 157.719 137.94C157.893 137.42 158.109 136.987 158.369 136.64C158.716 136.293 159.063 135.99 159.409 135.73C159.843 135.383 160.276 135.123 160.709 134.95C161.229 134.777 161.749 134.69 162.269 134.69H162.399L162.529 134.82ZM164.219 131.18L164.089 131.31C163.483 131.31 162.919 131.223 162.399 131.05C161.966 130.877 161.533 130.66 161.099 130.4C160.753 130.053 160.449 129.707 160.189 129.36C159.929 129.013 159.713 128.623 159.539 128.19C159.366 127.67 159.279 127.107 159.279 126.5V126.37H159.409H164.219V131.18ZM163.829 131.18L163.959 126.37H168.769H168.899V126.5C168.899 127.107 168.813 127.67 168.639 128.19C168.466 128.623 168.206 129.013 167.859 129.36C167.599 129.707 167.253 130.053 166.819 130.4C166.473 130.66 166.039 130.877 165.519 131.05C165.086 131.223 164.609 131.31 164.089 131.31H163.959L163.829 131.18ZM163.959 121.82L164.089 121.69C164.696 121.69 165.216 121.777 165.649 121.95C166.169 122.123 166.603 122.383 166.949 122.73C167.383 122.99 167.729 123.293 167.989 123.64C168.249 123.987 168.466 124.42 168.639 124.94C168.813 125.373 168.899 125.893 168.899 126.5V126.63H168.769H163.959V121.82ZM164.349 121.82L164.219 126.63H159.409H159.279V126.5C159.279 125.893 159.366 125.373 159.539 124.94C159.713 124.42 159.929 123.987 160.189 123.64C160.536 123.293 160.883 122.99 161.229 122.73C161.663 122.383 162.096 122.123 162.529 121.95C163.049 121.777 163.569 121.69 164.089 121.69H164.219L164.349 121.82ZM166.039 118.18L165.909 118.31C165.303 118.31 164.739 118.223 164.219 118.05C163.786 117.877 163.353 117.66 162.919 117.4C162.573 117.053 162.269 116.707 162.009 116.36C161.749 116.013 161.533 115.623 161.359 115.19C161.186 114.67 161.099 114.107 161.099 113.5V113.37H161.229H166.039V118.18ZM165.649 118.18L165.779 113.37H170.589H170.719V113.5C170.719 114.107 170.633 114.67 170.459 115.19C170.286 115.623 170.026 116.013 169.679 116.36C169.419 116.707 169.073 117.053 168.639 117.4C168.293 117.66 167.859 117.877 167.339 118.05C166.906 118.223 166.429 118.31 165.909 118.31H165.779L165.649 118.18ZM165.779 108.82L165.909 108.69C166.516 108.69 167.036 108.777 167.469 108.95C167.989 109.123 168.423 109.383 168.769 109.73C169.203 109.99 169.549 110.293 169.809 110.64C170.069 110.987 170.286 111.42 170.459 111.94C170.633 112.373 170.719 112.893 170.719 113.5V113.63H170.589H165.779V108.82ZM166.169 108.82L166.039 113.63H161.229H161.099V113.5C161.099 112.893 161.186 112.373 161.359 111.94C161.533 111.42 161.749 110.987 162.009 110.64C162.356 110.293 162.703 109.99 163.049 109.73C163.483 109.383 163.916 109.123 164.349 108.95C164.869 108.777 165.389 108.69 165.909 108.69H166.039L166.169 108.82ZM167.859 105.18L167.729 105.31C167.123 105.31 166.559 105.223 166.039 105.05C165.606 104.877 165.173 104.66 164.739 104.4C164.393 104.053 164.089 103.707 163.829 103.36C163.569 103.013 163.353 102.623 163.179 102.19C163.006 101.67 162.919 101.107 162.919 100.5V100.37H163.049H167.859V105.18ZM167.469 105.18L167.599 100.37H172.409H172.539V100.5C172.539 101.107 172.453 101.67 172.279 102.19C172.106 102.623 171.846 103.013 171.499 103.36C171.239 103.707 170.893 104.053 170.459 104.4C170.113 104.66 169.679 104.877 169.159 105.05C168.726 105.223 168.249 105.31 167.729 105.31H167.599L167.469 105.18ZM167.599 95.82L167.729 95.69C168.336 95.69 168.856 95.7767 169.289 95.95C169.809 96.1233 170.243 96.3833 170.589 96.73C171.023 96.99 171.369 97.2933 171.629 97.64C171.889 97.9867 172.106 98.42 172.279 98.94C172.453 99.3733 172.539 99.8933 172.539 100.5V100.63H172.409H167.599V95.82ZM167.989 95.82L167.859 100.63H163.049H162.919V100.5C162.919 99.8933 163.006 99.3733 163.179 98.94C163.353 98.42 163.569 97.9867 163.829 97.64C164.176 97.2933 164.523 96.99 164.869 96.73C165.303 96.3833 165.736 96.1233 166.169 95.95C166.689 95.7767 167.209 95.69 167.729 95.69H167.859L167.989 95.82ZM169.679 92.18L169.549 92.31C168.943 92.31 168.379 92.2233 167.859 92.05C167.426 91.8767 166.993 91.66 166.559 91.4C166.213 91.0533 165.909 90.7067 165.649 90.36C165.389 90.0133 165.173 89.6233 164.999 89.19C164.826 88.67 164.739 88.1067 164.739 87.5V87.37H164.869H169.679V92.18ZM169.289 92.18L169.419 87.37H174.229H174.359V87.5C174.359 88.1067 174.273 88.67 174.099 89.19C173.926 89.6233 173.666 90.0133 173.319 90.36C173.059 90.7067 172.713 91.0533 172.279 91.4C171.933 91.66 171.499 91.8767 170.979 92.05C170.546 92.2233 170.069 92.31 169.549 92.31H169.419L169.289 92.18ZM169.419 82.82L169.549 82.69C170.156 82.69 170.676 82.7767 171.109 82.95C171.629 83.1233 172.063 83.3833 172.409 83.73C172.843 83.99 173.189 84.2933 173.449 84.64C173.709 84.9867 173.926 85.42 174.099 85.94C174.273 86.3733 174.359 86.8933 174.359 87.5V87.63H174.229H169.419V82.82ZM169.809 82.82L169.679 87.63H164.869H164.739V87.5C164.739 86.8933 164.826 86.3733 164.999 85.94C165.173 85.42 165.389 84.9867 165.649 84.64C165.996 84.2933 166.343 83.99 166.689 83.73C167.123 83.3833 167.556 83.1233 167.989 82.95C168.509 82.7767 169.029 82.69 169.549 82.69H169.679L169.809 82.82ZM173.579 157.18L173.449 157.31C172.843 157.31 172.279 157.223 171.759 157.05C171.326 156.877 170.893 156.66 170.459 156.4C170.113 156.053 169.809 155.707 169.549 155.36C169.289 155.013 169.073 154.623 168.899 154.19C168.726 153.67 168.639 153.107 168.639 152.5V152.37H168.769H173.579V157.18ZM173.189 157.18L173.319 152.37H178.129H178.259V152.5C178.259 153.107 178.173 153.67 177.999 154.19C177.826 154.623 177.566 155.013 177.219 155.36C176.959 155.707 176.613 156.053 176.179 156.4C175.833 156.66 175.399 156.877 174.879 157.05C174.446 157.223 173.969 157.31 173.449 157.31H173.319L173.189 157.18ZM173.319 147.82L173.449 147.69C174.056 147.69 174.576 147.777 175.009 147.95C175.529 148.123 175.963 148.383 176.309 148.73C176.743 148.99 177.089 149.293 177.349 149.64C177.609 149.987 177.826 150.42 177.999 150.94C178.173 151.373 178.259 151.893 178.259 152.5V152.63H178.129H173.319V147.82ZM173.709 147.82L173.579 152.63H168.769H168.639V152.5C168.639 151.893 168.726 151.373 168.899 150.94C169.073 150.42 169.289 149.987 169.549 149.64C169.896 149.293 170.243 148.99 170.589 148.73C171.023 148.383 171.456 148.123 171.889 147.95C172.409 147.777 172.929 147.69 173.449 147.69H173.579L173.709 147.82ZM186.579 157.18L186.449 157.31C185.843 157.31 185.279 157.223 184.759 157.05C184.326 156.877 183.893 156.66 183.459 156.4C183.113 156.053 182.809 155.707 182.549 155.36C182.289 155.013 182.073 154.623 181.899 154.19C181.726 153.67 181.639 153.107 181.639 152.5V152.37H181.769H186.579V157.18ZM186.189 157.18L186.319 152.37H191.129H191.259V152.5C191.259 153.107 191.173 153.67 190.999 154.19C190.826 154.623 190.566 155.013 190.219 155.36C189.959 155.707 189.613 156.053 189.179 156.4C188.833 156.66 188.399 156.877 187.879 157.05C187.446 157.223 186.969 157.31 186.449 157.31H186.319L186.189 157.18ZM186.319 147.82L186.449 147.69C187.056 147.69 187.576 147.777 188.009 147.95C188.529 148.123 188.963 148.383 189.309 148.73C189.743 148.99 190.089 149.293 190.349 149.64C190.609 149.987 190.826 150.42 190.999 150.94C191.173 151.373 191.259 151.893 191.259 152.5V152.63H191.129H186.319V147.82ZM186.709 147.82L186.579 152.63H181.769H181.639V152.5C181.639 151.893 181.726 151.373 181.899 150.94C182.073 150.42 182.289 149.987 182.549 149.64C182.896 149.293 183.243 148.99 183.589 148.73C184.023 148.383 184.456 148.123 184.889 147.95C185.409 147.777 185.929 147.69 186.449 147.69H186.579L186.709 147.82Z" fill="white"/>
</g>
<defs>
<clipPath id="clip0_75_3">
<rect width="256" height="256" fill="white"/>
</clipPath>
</defs>
</svg>
